<?xml version="1.0" standalone="no"?>
<!DOCTYPE svg PUBLIC "-//W3C//DTD SVG 20010904//EN"
 "http://www.w3.org/TR/2001/REC-SVG-20010904/DTD/svg10.dtd">
<svg version="1.0" xmlns="http://www.w3.org/2000/svg"
 width="1024.000000pt" height="1024.000000pt" viewBox="0 0 1024.000000 1024.000000"
 preserveAspectRatio="xMidYMid meet">

<g transform="translate(0.000000,1024.000000) scale(0.100000,-0.100000)"
fill="#000000" stroke="none">
<path d="M0 5120 l0 -5120 5120 0 5120 0 0 5120 0 5120 -5120 0 -5120 0 0
-5120z m4304 1515 c317 -80 564 -287 687 -576 69 -162 105 -405 81 -539 -10
-49 -10 -45 -5 37 5 92 -13 293 -27 293 -4 0 -5 -11 -3 -24 3 -13 -1 -27 -8
-31 -9 -6 -10 -3 -6 9 5 12 3 16 -5 13 -7 -2 -12 -12 -12 -20 1 -13 -4 -15
-21 -11 -12 3 -42 0 -66 -6 -24 -7 -46 -12 -49 -12 -3 0 -9 -6 -13 -14 -4 -8
-13 -14 -20 -14 -7 0 -6 4 3 10 10 7 11 10 2 10 -7 0 -15 -7 -18 -15 -4 -8
-10 -12 -15 -9 -5 3 -9 0 -9 -5 0 -6 -8 -11 -17 -11 -15 0 -16 -2 -3 -10 13
-9 13 -10 0 -11 -40 -3 -86 4 -92 14 -4 7 -8 -15 -9 -48 0 -33 -3 -54 -6 -47
-2 6 -9 12 -14 12 -6 0 -7 -6 -2 -12 4 -7 -4 -5 -19 4 -18 12 -41 16 -77 14
-30 -2 -51 1 -51 6 0 6 -6 6 -14 -1 -8 -7 -17 -8 -20 -3 -3 5 -23 8 -46 6 -22
-1 -43 2 -46 7 -3 6 -10 6 -17 1 -14 -11 -48 -12 -42 -1 3 4 -13 6 -36 5 -22
-1 -42 1 -44 4 -2 4 -20 6 -40 5 -25 -2 -35 1 -35 11 0 11 -4 12 -19 4 -14 -7
-22 -7 -26 0 -4 6 -11 7 -17 4 -6 -4 -15 0 -20 7 -7 11 -11 11 -15 2 -4 -10
-9 -10 -26 -1 -12 7 -26 13 -32 13 -5 1 -22 6 -36 12 -15 6 -38 10 -52 9 -15
-2 -24 1 -21 5 6 10 3 11 -44 15 -19 1 -41 9 -50 16 -27 22 -72 39 -72 27 0
-6 -7 -3 -16 5 -8 9 -20 16 -25 16 -6 0 -7 5 -4 10 5 9 -15 14 -52 13 -6 0 -9
6 -6 13 3 8 -1 14 -10 14 -8 0 -17 3 -20 8 -2 4 -2 1 -1 -5 5 -18 -11 -16 -30
3 -21 20 -20 25 2 18 14 -5 15 -4 2 5 -20 15 -53 14 -44 -1 4 -7 3 -8 -5 -4
-9 6 -9 11 -1 21 8 9 6 14 -5 19 -9 3 -13 2 -10 -4 3 -6 -1 -7 -9 -4 -23 9
-20 20 24 88 l40 61 -36 -40 c-109 -123 -158 -340 -119 -531 26 -123 82 -230
173 -330 26 -27 14 -17 -25 23 -65 65 -74 70 -88 57 -8 -9 -15 -11 -15 -5 0 6
-5 11 -11 11 -5 0 -8 -4 -5 -9 3 -5 -1 -11 -8 -14 -8 -3 -17 -1 -20 6 -2 7 -5
5 -5 -4 -1 -11 -9 -16 -23 -14 -13 1 -34 -5 -47 -13 -13 -8 -20 -9 -17 -3 5 7
-2 12 -16 13 -53 3 -74 6 -93 13 -12 4 -15 4 -8 -2 8 -6 9 -14 3 -23 -7 -10
-10 -11 -10 -2 0 6 -8 12 -17 12 -15 0 -16 -2 -3 -10 9 -6 10 -10 3 -10 -6 0
-14 4 -18 9 -3 6 -14 8 -25 6 -16 -3 -20 2 -20 23 0 18 -3 23 -10 16 -14 -14
8 -66 23 -57 6 3 7 1 3 -5 -16 -26 68 -154 178 -272 l70 -75 -72 70 c-181 173
-286 408 -299 665 -14 276 69 529 241 740 91 114 263 232 416 289 201 74 435
87 634 36z m-1950 -21 c106 -18 253 -63 353 -109 l73 -34 -46 -128 c-25 -70
-51 -142 -56 -160 l-11 -31 -63 24 c-158 59 -399 102 -508 89 -186 -21 -287
-137 -232 -268 31 -75 113 -118 355 -183 306 -83 405 -126 494 -212 191 -186
179 -568 -23 -771 -143 -143 -327 -199 -620 -188 -221 9 -420 56 -589 142
l-70 35 50 142 c28 79 53 151 56 161 6 19 24 17 73 -8 41 -21 209 -72 300 -91
118 -25 305 -25 385 0 141 43 205 188 132 298 -28 42 -123 90 -247 123 -343
93 -480 153 -581 254 -106 106 -147 224 -136 384 10 147 70 271 178 371 174
162 411 213 733 160z m3768 -4 c154 -13 254 -34 355 -74 354 -144 588 -547
559 -967 -17 -258 -109 -464 -277 -624 l-64 -60 71 75 c39 41 84 95 101 120
83 123 139 285 150 433 l6 90 -25 -17 c-13 -9 -28 -13 -33 -9 -4 5 -5 2 -1 -4
4 -7 2 -13 -3 -13 -6 0 -11 5 -11 11 0 8 -5 7 -16 -2 -10 -8 -12 -15 -5 -17 6
-2 8 -8 5 -13 -3 -6 -12 -5 -22 3 -12 10 -14 10 -8 1 4 -7 2 -13 -3 -13 -6 0
-11 6 -11 13 0 8 -3 7 -9 -3 -6 -8 -7 -18 -5 -22 3 -4 -5 -8 -17 -8 -19 0 -20
2 -8 18 12 15 12 16 -1 6 -8 -6 -27 -10 -42 -9 -15 1 -25 -1 -23 -5 2 -4 -2
-16 -10 -26 -9 -10 -15 -14 -14 -9 5 35 -2 54 -17 48 -9 -3 -12 -9 -7 -12 4
-3 9 -13 11 -21 3 -12 1 -13 -9 -2 -18 16 -32 15 -26 -2 4 -11 1 -13 -10 -9
-12 5 -14 3 -8 -7 5 -9 4 -11 -4 -6 -6 4 -8 12 -5 18 4 6 1 9 -7 6 -8 -3 -14
-14 -13 -26 0 -13 -4 -18 -13 -15 -10 4 -12 15 -8 34 4 16 3 29 -2 29 -4 0
-14 -24 -21 -52 -20 -86 -77 -194 -134 -255 -50 -53 -159 -133 -181 -133 -6 0
16 16 49 36 118 70 196 171 240 308 22 68 27 100 27 201 1 198 -52 344 -168
461 -117 118 -215 144 -540 144 -168 0 -215 -3 -224 -14 -8 -10 -11 -171 -9
-594 2 -319 0 -578 -4 -575 -5 2 -8 91 -8 196 0 132 -3 187 -10 177 -9 -13
-12 -13 -23 2 -8 9 -24 18 -38 20 -13 2 -30 7 -36 11 -7 5 -17 5 -23 2 -5 -3
-10 -2 -10 3 0 6 -7 12 -14 15 -11 4 -13 1 -10 -11 5 -14 3 -13 -10 2 -9 11
-16 14 -16 8 0 -7 -7 -12 -16 -12 -9 0 -12 5 -8 13 6 10 4 10 -7 0 -20 -20
-31 -15 -19 7 9 16 8 18 -5 14 -8 -4 -15 -10 -15 -15 0 -5 -6 -8 -12 -6 -7 1
-12 -3 -11 -9 1 -8 -6 -10 -19 -6 -14 3 -19 1 -14 -6 11 -19 -5 -14 -20 6 -13
16 -13 16 -14 -3 0 -34 -18 -2 -23 40 -2 22 -5 -30 -7 -115 l-4 -155 -6 120
c-4 66 -8 380 -9 698 l-1 577 368 0 c202 0 420 -5 484 -10z m2311 -529 c103
-293 186 -535 184 -538 -3 -2 -40 95 -83 216 -44 121 -81 218 -83 216 -3 -4
15 -62 34 -108 6 -13 3 -16 -9 -11 -9 4 -16 1 -16 -6 0 -7 -7 -10 -16 -6 -12
4 -15 2 -10 -9 3 -8 1 -15 -5 -15 -6 0 -7 -4 -4 -10 3 -5 1 -10 -4 -10 -6 0
-11 5 -11 10 0 6 -7 10 -16 10 -9 0 -12 -5 -8 -12 6 -10 3 -9 -8 0 -14 12 -19
9 -33 -15 -13 -23 -15 -24 -12 -6 5 22 4 22 -18 5 -20 -15 -21 -18 -7 -24 10
-4 -5 -5 -32 -2 -37 5 -47 3 -41 -6 6 -10 1 -11 -19 -6 -18 4 -26 2 -27 -6 0
-7 -11 10 -24 37 -13 28 -24 47 -24 43 -1 -3 26 -84 60 -178 33 -95 59 -174
57 -176 -2 -2 -46 112 -98 254 -156 428 -149 414 -173 410 -19 -3 -39 -50
-143 -338 -88 -244 -119 -340 -112 -352 8 -16 31 -18 256 -18 184 0 252 3 262
13 12 10 12 9 1 -5 -12 -16 -37 -18 -267 -18 -296 0 -288 -3 -254 96 23 66 24
78 8 68 -7 -4 -8 -3 -4 5 4 6 12 9 17 6 5 -4 9 -2 9 4 0 5 3 17 6 26 5 12 2
16 -12 13 -11 -2 -22 -7 -26 -13 -5 -6 -8 -5 -8 3 0 7 -5 10 -10 7 -6 -4 -8
-11 -5 -16 4 -5 -1 -9 -10 -9 -10 0 -13 5 -9 13 5 7 0 6 -11 -3 -15 -12 -17
-12 -10 -1 6 11 2 13 -19 7 -15 -4 -25 -3 -22 2 3 5 -8 6 -25 4 -26 -4 -28 -7
-17 -21 8 -10 4 -9 -10 4 -19 15 -25 17 -32 6 -6 -11 -9 -10 -14 5 -3 10 -4 6
-2 -11 4 -26 3 -27 -9 -12 -7 9 -16 17 -20 17 -5 0 -5 -3 -2 -7 4 -3 2 -12 -3
-19 -14 -16 -50 -6 -43 12 3 8 0 14 -6 14 -6 0 -11 -5 -11 -12 0 -6 -3 -8 -7
-5 -3 4 -12 2 -19 -4 -9 -8 -11 -5 -7 10 3 12 8 19 12 17 3 -2 6 11 7 30 0 19
-1 33 -2 31 -1 -1 -42 -109 -90 -240 -48 -130 -89 -236 -91 -234 -1 2 72 213
163 468 91 255 201 565 245 689 43 124 81 231 84 238 3 10 61 12 262 10 l257
-3 189 -534z m-3386 -306 c0 -8 -4 -15 -9 -15 -10 0 -11 14 -1 23 9 10 10 9
10 -8z m1963 -220 c0 -8 -4 -15 -9 -15 -5 0 -11 7 -15 15 -3 9 0 15 9 15 8 0
15 -7 15 -15z m1644 -105 c5 -20 3 -19 -8 5 -7 17 -16 41 -20 55 -5 20 -3 19
8 -5 7 -16 16 -41 20 -55z m-3604 -61 c-17 -68 -23 -57 -8 15 7 32 14 53 16
47 2 -7 -2 -34 -8 -62z m3644 -49 c5 -17 4 -20 -2 -10 -5 8 -13 26 -16 40 -5
17 -4 20 2 10 5 -8 13 -26 16 -40z m-3674 -47 c-11 -17 -11 -17 -6 0 3 10 6
24 7 30 0 9 2 9 5 0 3 -7 0 -20 -6 -30z m-1525 -63 c3 -5 1 -10 -4 -10 -6 0
-11 5 -11 10 0 6 2 10 4 10 3 0 8 -4 11 -10z m1486 -37 c-12 -20 -14 -14 -5
12 4 9 9 14 11 11 3 -2 0 -13 -6 -23z m-1741 6 c0 -6 7 -8 16 -5 8 3 12 2 9
-3 -8 -14 -45 -9 -45 6 0 7 5 13 10 13 6 0 10 -5 10 -11z m70 -9 c0 -5 -2 -10
-4 -10 -3 0 -8 5 -11 10 -3 6 -1 10 4 10 6 0 11 -4 11 -10z m3899 -59 c-6 -18
-13 -30 -15 -28 -2 2 1 18 7 36 6 18 13 30 15 28 2 -2 -1 -18 -7 -36z m430
-24 c-2 -1 -13 -9 -24 -17 -19 -14 -19 -14 -6 3 7 9 18 17 24 17 6 0 8 -1 6
-3z m-1377 -43 c-18 -8 -54 -17 -80 -19 -41 -4 -39 -3 17 10 35 8 66 17 69 20
3 3 10 5 16 4 6 0 -4 -7 -22 -15z m909 -31 c-12 -20 -14 -14 -5 12 4 9 9 14
11 11 3 -2 0 -13 -6 -23z m-1358 0 c-7 -2 -19 -2 -25 0 -7 3 -2 5 12 5 14 0
19 -2 13 -5z m295 0 c-15 -2 -42 -2 -60 0 -18 2 -6 4 27 4 33 0 48 -2 33 -4z
m582 -147 c0 -2 -8 -10 -17 -17 -16 -13 -17 -12 -4 4 13 16 21 21 21 13z
m-3215 -109 c6 -6 -5 -1 -23 9 -18 10 -41 28 -50 38 -15 18 47 -23 73 -47z
m-1502 -713 c18 -9 40 -23 50 -32 17 -15 16 -17 -9 -43 l-27 -28 -29 24 c-78
66 -206 27 -185 -57 7 -27 43 -46 142 -73 77 -22 121 -55 136 -104 51 -170
-174 -267 -346 -150 -19 13 -35 26 -35 29 0 3 11 19 24 35 l24 30 29 -27 c36
-34 73 -48 128 -48 67 0 100 36 96 103 -1 21 -56 47 -158 76 -92 27 -123 60
-123 132 0 81 32 124 111 148 43 13 132 5 172 -15z m4222 -3 c36 -16 105 -76
105 -90 0 -3 -14 -14 -31 -24 -31 -17 -31 -17 -65 12 -140 124 -352 -11 -303
-192 26 -96 92 -142 195 -135 53 3 70 9 103 36 40 32 42 32 71 17 38 -19 38
-30 0 -65 -54 -50 -97 -65 -190 -65 -69 0 -94 4 -133 24 -56 27 -110 94 -128
159 -16 56 -7 158 19 207 63 123 224 175 357 116z m-1922 -1 c57 -21 113 -73
143 -130 26 -50 26 -182 0 -230 -26 -49 -64 -88 -111 -113 -34 -18 -62 -22
-183 -27 l-142 -5 0 263 0 262 120 0 c95 0 130 -4 173 -20z m2197 -239 l0
-259 -40 -4 -40 -4 0 263 0 263 40 0 40 0 0 -259z m-2870 159 l0 -60 50 0 c52
0 53 -1 44 -37 -5 -19 -13 -23 -50 -23 l-44 0 0 -103 c0 -121 10 -144 58 -134
27 5 31 3 41 -23 8 -25 7 -31 -9 -40 -36 -19 -107 -12 -137 14 l-28 24 0 131
0 131 -37 0 c-35 0 -38 2 -38 30 0 28 3 30 35 30 l35 0 0 54 c0 58 -2 56 68
65 8 1 12 -17 12 -59z m1450 0 l0 -60 49 0 c49 0 49 0 42 -27 -6 -24 -13 -28
-49 -31 l-43 -3 3 -117 3 -117 42 1 c38 1 42 -2 47 -29 3 -17 4 -32 2 -35 -12
-11 -99 -13 -125 -3 -42 18 -51 49 -51 181 l0 120 -37 0 c-35 0 -38 2 -38 30
0 28 3 30 38 30 l37 0 0 54 c0 58 -2 56 68 65 8 1 12 -17 12 -59z m-2638 -89
l26 -29 23 24 c50 54 135 55 185 3 l29 -30 3 -150 3 -149 -40 0 -41 0 0 134
c0 109 -3 138 -16 150 -25 26 -72 20 -105 -13 -29 -29 -29 -30 -29 -153 l0
-124 -40 4 -40 4 0 130 c0 71 -5 138 -10 149 -16 29 -71 25 -109 -7 l-31 -26
0 -124 0 -124 -40 0 -40 0 0 180 0 180 40 0 c34 0 40 -3 40 -22 0 -20 1 -20
18 -5 51 46 132 46 174 -2z m600 29 c70 -20 78 -42 78 -214 l0 -152 -40 4
c-35 4 -40 7 -35 23 4 11 2 19 -4 19 -6 0 -11 -5 -11 -11 0 -5 -16 -17 -35
-25 -77 -32 -160 -6 -192 60 -14 31 -15 39 -2 72 23 61 57 79 157 81 l87 2 -3
28 c-2 15 -10 34 -17 42 -20 21 -99 17 -140 -8 l-34 -20 -21 29 -21 29 33 17
c67 35 132 42 200 24z m398 -14 c0 -41 -11 -56 -39 -56 -71 0 -101 -59 -101
-197 l0 -98 -37 1 -38 1 -3 182 -3 181 40 0 c40 0 41 -1 41 -32 l0 -33 23 26
c28 34 55 48 90 49 22 0 27 -4 27 -24z m1376 -1 c43 -28 54 -71 54 -214 l0
-129 -40 -4 c-36 -3 -40 -1 -40 19 l0 22 -36 -24 c-62 -42 -159 -29 -198 27
-25 35 -21 104 8 133 31 31 97 48 168 43 57 -4 58 -4 58 21 0 36 -11 50 -48
60 -34 10 -91 0 -125 -22 -20 -13 -24 -12 -40 10 -15 19 -16 27 -7 39 35 42
193 54 246 19z m666 15 c68 -19 78 -47 78 -214 l0 -146 -41 0 c-36 0 -41 2
-36 20 3 11 1 20 -4 20 -5 0 -9 -4 -9 -9 0 -20 -73 -43 -122 -39 -69 7 -111
48 -112 111 -2 81 64 122 186 115 l58 -3 0 30 c0 17 -5 36 -12 43 -19 19 -109
15 -145 -8 l-32 -19 -21 29 -21 29 33 17 c67 35 132 42 200 24z m1403 -22 c41
-27 70 -78 80 -135 l7 -43 -152 0 -151 0 6 -22 c4 -13 20 -35 36 -50 23 -23
39 -28 77 -28 26 0 60 7 76 15 26 14 31 14 53 0 32 -21 26 -34 -27 -62 -72
-38 -186 -27 -243 25 -57 51 -74 160 -37 232 21 41 63 76 108 91 45 14 130 3
167 -23z m387 22 c70 -20 78 -42 78 -214 l0 -151 -35 0 c-30 0 -35 3 -35 23
l0 23 -31 -23 c-45 -34 -147 -33 -183 1 -38 36 -50 82 -32 124 23 56 57 72
156 74 85 3 85 3 83 29 -1 14 -7 32 -14 40 -18 21 -107 18 -146 -6 l-32 -19
-20 27 -20 28 22 14 c57 36 143 48 209 30z m458 -5 c51 -27 60 -58 60 -217 l0
-144 -40 4 -40 4 0 127 c0 147 -9 171 -65 171 -92 0 -115 -38 -115 -192 l0
-114 -40 4 -40 4 0 179 0 179 40 0 c37 0 40 -2 40 -27 l0 -26 23 21 c45 43
124 55 177 27z m401 4 c68 -23 113 -84 121 -164 l3 -30 -147 -3 c-167 -3 -175
-7 -114 -68 29 -29 41 -34 80 -34 26 0 61 7 77 16 28 14 33 14 56 -1 24 -16
24 -17 6 -37 -64 -73 -227 -61 -296 21 -31 37 -41 83 -35 151 11 115 133 187
249 149z m419 -6 c0 -42 -13 -63 -36 -63 -36 0 -69 -19 -87 -50 -13 -21 -17
-53 -17 -134 l0 -106 -40 0 -40 0 0 180 0 180 40 0 c38 0 40 -1 40 -31 l0 -32
21 27 c25 31 51 44 92 45 19 1 27 -4 27 -16z"/>
<path d="M4350 6170 c-9 -6 -10 -10 -3 -10 6 0 15 5 18 10 8 12 4 12 -15 0z"/>
<path d="M4620 6060 c-9 -6 -10 -10 -3 -10 6 0 15 5 18 10 8 12 4 12 -15 0z"/>
<path d="M5031 5874 c0 -11 3 -14 6 -6 3 7 2 16 -1 19 -3 4 -6 -2 -5 -13z"/>
<path d="M3087 5265 c3 -8 9 -12 14 -9 12 7 11 11 -5 17 -10 4 -13 1 -9 -8z"/>
<path d="M2820 5185 c-1 -5 -2 -14 -1 -19 5 -25 -11 -56 -29 -56 -10 0 -22 -5
-25 -10 -4 -6 -11 -8 -16 -5 -5 4 -12 -1 -15 -9 -8 -22 -25 -20 -18 2 3 9 -4
5 -16 -11 -18 -22 -25 -25 -36 -16 -12 9 -18 9 -27 0 -9 -10 -8 -11 8 -5 20 7
20 7 1 -14 -10 -12 -23 -19 -29 -15 -7 4 -8 0 -4 -12 6 -14 3 -16 -12 -12 -15
4 -23 -2 -30 -22 -5 -14 -10 -20 -10 -13 -1 7 -6 10 -11 7 -8 -5 -7 -12 2 -23
10 -12 10 -14 1 -8 -7 4 -13 3 -13 -3 0 -5 -9 -8 -19 -6 -14 3 -18 -1 -14 -11
3 -9 -1 -14 -11 -14 -9 0 -21 -10 -27 -22 l-10 -23 5 22 c2 13 -1 26 -7 30 -7
3 -9 3 -5 -1 3 -4 -3 -17 -14 -28 -13 -13 -18 -29 -15 -44 2 -14 2 -22 -1 -20
-9 9 -58 -25 -68 -48 -5 -11 -15 -20 -22 -18 -7 1 -12 -3 -12 -9 0 -5 -4 -7
-10 -4 -5 3 -10 1 -10 -4 0 -6 -7 -11 -16 -11 -11 0 -14 -5 -10 -17 4 -10 4
-14 0 -10 -4 3 -20 -3 -37 -15 -21 -15 -49 -22 -101 -26 -88 -5 -99 -12 -20
-12 90 0 243 18 303 36 153 44 296 156 354 276 31 64 60 180 54 212 -2 11 -5
17 -7 11z"/>
<path d="M1958 4663 c7 -3 16 -2 19 1 4 3 -2 6 -13 5 -11 0 -14 -3 -6 -6z"/>
<path d="M6643 5620 c0 -36 2 -50 4 -32 2 17 2 47 0 65 -2 17 -4 3 -4 -33z"/>
<path d="M7786 5705 c-9 -26 -7 -32 5 -12 6 10 9 21 6 23 -2 3 -7 -2 -11 -11z"/>
<path d="M7760 5660 c0 -5 5 -10 10 -10 6 0 10 5 10 10 0 6 -4 10 -10 10 -5 0
-10 -4 -10 -10z"/>
<path d="M4060 4008 c0 -2 -1 -87 -3 -191 l-2 -187 83 0 c96 0 146 20 183 72
28 38 38 137 19 192 -14 44 -67 92 -117 105 -33 9 -163 16 -163 9z"/>
<path d="M2868 3709 c-26 -15 -23 -64 4 -83 54 -38 132 -5 140 59 l4 35 -66 0
c-36 0 -73 -5 -82 -11z"/>
<path d="M4607 3702 c-38 -42 -5 -92 61 -92 42 0 92 46 92 84 0 25 -2 26 -68
26 -54 0 -72 -4 -85 -18z"/>
<path d="M5308 3709 c-28 -16 -23 -65 7 -85 54 -36 135 5 135 67 0 29 0 29
-62 29 -35 0 -71 -5 -80 -11z"/>
<path d="M6710 3857 c-20 -7 -41 -25 -53 -44 l-19 -33 106 0 c58 0 106 2 106
5 0 20 -34 65 -52 70 -46 13 -54 13 -88 2z"/>
<path d="M7098 3709 c-26 -15 -23 -64 4 -83 53 -38 130 -5 143 62 l7 32 -69 0
c-37 0 -76 -5 -85 -11z"/>
<path d="M8006 3859 c-34 -9 -62 -34 -69 -60 -5 -18 1 -19 99 -19 57 0 104 4
104 9 0 5 -11 23 -25 39 -27 32 -65 43 -109 31z"/>
</g>
</svg>
